<svg xmlns="http://www.w3.org/2000/svg" xmlns:xlink="http://www.w3.org/1999/xlink" width="500" zoomAndPan="magnify"
     viewBox="0 0 375 374.999991" height="500" preserveAspectRatio="xMidYMid meet" version="1.0">
    <defs>
        <g/>
    </defs>
    <g fill="#ffffff" fill-opacity="1">
        <g transform="translate(113.841002, 205.608023)">
            <g>
                <path
                    d="M 7.234375 -0.109375 L 28.515625 -97.28125 L 16.5 -113.0625 L 102.671875 -113.0625 C 103.484375 -113.0625 104.332031 -112.789062 105.21875 -112.25 C 105.625 -111.90625 106.015625 -111.582031 106.390625 -111.28125 C 106.765625 -110.976562 107.125 -110.625 107.46875 -110.21875 C 108.144531 -109.53125 108.6875 -108.710938 109.09375 -107.765625 C 109.5 -107.015625 109.632812 -106.300781 109.5 -105.625 L 99.828125 -61.734375 L 85.875 -54.59375 L 96.765625 -47.671875 L 88 -7.53125 C 87.9375 -6.988281 87.5 -6.28125 86.6875 -5.40625 C 86.28125 -4.925781 85.867188 -4.484375 85.453125 -4.078125 C 85.046875 -3.671875 84.570312 -3.296875 84.03125 -2.953125 C 83.488281 -2.546875 82.960938 -2.1875 82.453125 -1.875 C 81.941406 -1.570312 81.414062 -1.253906 80.875 -0.921875 C 79.65625 -0.378906 78.671875 -0.109375 77.921875 -0.109375 Z M 77.828125 -91.265625 L 55.609375 -91.265625 L 51.234375 -71 L 43.1875 -65.796875 L 47.0625 -52.046875 L 40.4375 -21.90625 L 62.75 -21.90625 L 67.9375 -45.734375 L 56.640625 -40.140625 L 50.109375 -63.15625 L 74.765625 -77.3125 Z M 77.828125 -91.265625 "/>
            </g>
        </g>
    </g>
    <g fill="#ffffff" fill-opacity="1">
        <g transform="translate(165.812896, 269.015278)">
            <g>
                <path
                    d="M 9.265625 -113.0625 L 53.265625 -113.0625 L 33.3125 -21.90625 L 45.015625 -21.90625 L 47.359375 -32.5 L 75.578125 -32.5 L 68.546875 -0.109375 L 0.109375 -0.109375 L 21.390625 -97.28125 Z M 9.265625 -113.0625 "/>
            </g>
        </g>
    </g>
</svg>
